# Blender 5.0.0
# www.blender.org
mtllib belt_curve_left.mtl
o Cube.031
v -0.818010 0.640127 0.996680
v -0.818010 1.039958 0.996680
v -0.818010 0.640127 1.002511
v -0.818010 1.039958 1.002511
v -0.877511 0.640127 0.996680
v -0.877511 1.039958 0.996680
v -0.877511 0.640127 1.002511
v -0.877511 1.039958 1.002511
v -0.997760 0.640127 0.866431
v -0.997760 1.039958 0.866431
v -1.003591 0.640127 0.866431
v -1.003591 1.039958 0.866431
v -0.997760 0.640127 0.806930
v -0.997760 1.039958 0.806930
v -1.003591 0.640127 0.806930
v -1.003591 1.039958 0.806930
v -0.818785 0.640127 0.972442
v -0.818785 1.039958 0.972442
v -0.877766 0.640127 0.980291
v -0.877766 1.039958 0.980291
v -0.822751 0.640127 0.948517
v -0.822751 1.039958 0.948517
v -0.880181 0.640127 0.964079
v -0.880181 1.039958 0.964079
v -0.829839 0.640127 0.925325
v -0.829839 1.039958 0.925325
v -0.884714 0.640127 0.948326
v -0.884714 1.039958 0.948326
v -0.839923 0.640127 0.903270
v -0.839923 1.039958 0.903270
v -0.891285 0.640127 0.933310
v -0.891285 1.039958 0.933310
v -0.852830 0.640127 0.882739
v -0.852830 1.039958 0.882739
v -0.899779 0.640127 0.919291
v -0.899779 1.039958 0.919291
v -0.868332 0.640127 0.864089
v -0.868332 1.039958 0.864089
v -0.910049 0.640127 0.906516
v -0.910049 1.039958 0.906516
v -0.886158 0.640127 0.847648
v -0.886158 1.039958 0.847648
v -0.921914 0.640127 0.895207
v -0.921914 1.039958 0.895207
v -0.905998 0.640127 0.833701
v -0.905998 1.039958 0.833701
v -0.935168 0.640127 0.885562
v -0.935168 1.039958 0.885562
v -0.927504 0.640127 0.822495
v -0.927504 1.039958 0.822495
v -0.949578 0.640127 0.877750
v -0.949578 1.039958 0.877750
v -0.950301 0.640127 0.814223
v -0.950301 1.039958 0.814223
v -0.964892 0.640127 0.871907
v -0.964892 1.039958 0.871907
v -0.973990 0.640127 0.809030
v -0.973990 1.039958 0.809030
v -0.980844 0.640127 0.868135
v -0.980844 1.039958 0.868135
v -0.998156 0.640127 0.807008
v -0.998156 1.039958 0.807008
v -0.997153 0.640127 0.866501
v -0.997153 1.039958 0.866501
v -0.997760 0.640127 0.866431
v -0.997760 1.039958 0.866431
v -0.997760 1.039958 0.806930
v -0.997760 0.640127 0.806930
v 0.861456 0.640127 0.994507
v 0.861456 1.039865 0.994507
v 0.861456 0.640127 1.002854
v 0.861456 1.039865 1.002854
v 0.803023 0.640127 0.994507
v 0.803023 1.039865 0.994507
v 0.803023 0.640127 1.002854
v 0.803023 1.039865 1.002854
v 0.845375 0.640127 0.751710
v 0.845375 1.039865 0.751710
v 0.787437 0.640127 0.759300
v 0.787437 1.039865 0.759300
v 0.797893 0.640127 0.513059
v 0.797893 1.039865 0.513059
v 0.741432 0.640127 0.528110
v 0.741432 1.039865 0.528110
v 0.719814 0.640127 0.282597
v 0.719814 1.039865 0.282597
v 0.665787 0.640127 0.304855
v 0.665787 1.039865 0.304855
v 0.612462 0.640127 0.064230
v 0.612462 1.039865 0.064230
v 0.561783 0.640127 0.093317
v 0.561783 1.039865 0.093317
v 0.477655 0.640127 -0.138343
v 0.477655 1.039865 -0.138343
v 0.431183 0.640127 -0.102920
v 0.431183 1.039865 -0.102920
v 0.317677 0.640127 -0.321690
v 0.317677 1.039865 -0.321690
v 0.276201 0.640127 -0.280530
v 0.276201 1.039865 -0.280530
v 0.135239 0.640127 -0.482703
v 0.135239 1.039865 -0.482703
v 0.099461 0.640127 -0.436505
v 0.099461 1.039865 -0.436505
v -0.066567 0.640127 -0.618655
v -0.066567 1.039865 -0.618655
v -0.096042 0.640127 -0.568201
v -0.096042 1.039865 -0.568201
v -0.284323 0.640127 -0.727242
v -0.284323 1.039865 -0.727242
v -0.306994 0.640127 -0.673387
v -0.306994 1.039865 -0.673387
v -0.514338 0.640127 -0.806625
v -0.514338 1.039865 -0.806625
v -0.529822 0.640127 -0.750282
v -0.529822 1.039865 -0.750282
v -0.752716 0.640127 -0.855458
v -0.752716 1.039865 -0.855458
v -0.760751 0.640127 -0.797581
v -0.760751 1.039865 -0.797581
v -0.995418 0.640127 -0.872914
v -0.995418 1.039865 -0.872914
v -0.995866 0.640127 -0.814483
v -0.995866 1.039865 -0.814483
vn 1.0000 -0.0000 -0.0000
vn -0.0000 -0.0000 1.0000
vn -1.0000 -0.0000 -0.0000
vn 0.9995 -0.0000 -0.0320
vn -0.0000 -1.0000 -0.0000
vn -0.0000 1.0000 -0.0000
vn -0.0000 -0.0000 -1.0000
vn -0.9999 -0.0000 0.0156
vn 0.9865 -0.0000 -0.1635
vn -0.9891 -0.0000 0.1473
vn 0.9563 -0.0000 -0.2923
vn -0.9610 -0.0000 0.2765
vn -0.9161 -0.0000 0.4009
vn 0.9094 -0.0000 -0.4159
vn 0.7690 -0.0000 -0.6392
vn 0.8466 -0.0000 -0.5322
vn -0.8552 -0.0000 0.5182
vn -0.7794 -0.0000 0.6265
vn -0.6899 -0.0000 0.7239
vn 0.6780 -0.0000 -0.7351
vn 0.5751 -0.0000 -0.8181
vn -0.5884 -0.0000 0.8086
vn -0.3565 -0.0000 0.9343
vn -0.4766 -0.0000 0.8791
vn 0.4621 -0.0000 -0.8868
vn 0.3411 -0.0000 -0.9400
vn 0.2141 -0.0000 -0.9768
vn -0.2301 -0.0000 0.9732
vn -0.9999 -0.0000 0.0169
vn -0.0997 -0.0000 0.9950
vn 0.0834 -0.0000 -0.9965
vn 0.9978 -0.0000 -0.0661
vn -0.9978 -0.0000 0.0661
vn 0.9808 -0.0000 -0.1951
vn -0.9808 -0.0000 0.1952
vn -0.9471 -0.0000 0.3209
vn 0.9471 -0.0000 -0.3209
vn 0.8974 -0.0000 -0.4412
vn -0.8974 -0.0000 0.4412
vn 0.8325 -0.0000 -0.5540
vn -0.8325 -0.0000 0.5540
vn -0.7535 -0.0000 0.6575
vn 0.7535 -0.0000 -0.6575
vn 0.5587 -0.0000 -0.8294
vn 0.6617 -0.0000 -0.7498
vn -0.6617 -0.0000 0.7498
vn -0.5587 -0.0000 0.8294
vn -0.4462 -0.0000 0.8949
vn 0.4463 -0.0000 -0.8949
vn 0.3262 -0.0000 -0.9453
vn -0.3262 -0.0000 0.9453
vn -0.0717 -0.0000 0.9974
vn -0.2007 -0.0000 0.9797
vn 0.2007 -0.0000 -0.9797
vn -1.0000 -0.0000 -0.0077
vn 0.0717 -0.0000 -0.9974
vt 0.375000 0.000000
vt 0.625000 0.000000
vt 0.625000 0.250000
vt 0.375000 0.250000
vt 0.625000 0.500000
vt 0.375000 0.500000
vt 0.625000 0.750000
vt 0.375000 0.750000
vt 0.125000 0.500000
vt 0.125000 0.750000
vt 0.875000 0.500000
vt 0.875000 0.750000
vt 0.625000 1.000000
vt 0.375000 1.000000
s 0
f 1/1/1 2/2/1 4/3/1 3/4/1
f 3/4/2 4/3/2 8/5/2 7/6/2
f 7/6/3 8/5/3 6/7/3 5/8/3
f 2/2/4 1/1/4 17/1/4 18/2/4
f 3/9/5 7/6/5 5/8/5 1/10/5
f 8/5/6 4/11/6 2/12/6 6/7/6
f 9/1/2 10/2/2 12/3/2 11/4/2
f 11/4/3 12/3/3 16/5/3 15/6/3
f 15/6/7 16/5/7 14/7/7 13/8/7
f 10/2/6 9/1/6 65/1/6 66/2/6
f 11/9/5 15/6/5 13/8/5 9/10/5
f 16/5/6 12/11/6 10/12/6 14/7/6
f 17/10/5 19/8/5 23/8/5 21/10/5
f 1/10/5 5/8/5 19/8/5 17/10/5
f 6/7/6 2/12/6 18/12/6 20/7/6
f 5/8/8 6/7/8 20/7/8 19/8/8
f 21/10/5 23/8/5 27/8/5 25/10/5
f 18/2/9 17/1/9 21/1/9 22/2/9
f 20/7/6 18/12/6 22/12/6 24/7/6
f 19/8/10 20/7/10 24/7/10 23/8/10
f 28/7/6 26/12/6 30/12/6 32/7/6
f 22/2/11 21/1/11 25/1/11 26/2/11
f 24/7/6 22/12/6 26/12/6 28/7/6
f 23/8/12 24/7/12 28/7/12 27/8/12
f 29/10/5 31/8/5 35/8/5 33/10/5
f 27/8/13 28/7/13 32/7/13 31/8/13
f 25/10/5 27/8/5 31/8/5 29/10/5
f 26/2/14 25/1/14 29/1/14 30/2/14
f 34/2/15 33/1/15 37/1/15 38/2/15
f 30/2/16 29/1/16 33/1/16 34/2/16
f 32/7/6 30/12/6 34/12/6 36/7/6
f 31/8/17 32/7/17 36/7/17 35/8/17
f 40/7/6 38/12/6 42/12/6 44/7/6
f 36/7/6 34/12/6 38/12/6 40/7/6
f 35/8/18 36/7/18 40/7/18 39/8/18
f 33/10/5 35/8/5 39/8/5 37/10/5
f 41/10/5 43/8/5 47/8/5 45/10/5
f 39/8/19 40/7/19 44/7/19 43/8/19
f 37/10/5 39/8/5 43/8/5 41/10/5
f 38/2/20 37/1/20 41/1/20 42/2/20
f 48/7/6 46/12/6 50/12/6 52/7/6
f 42/2/21 41/1/21 45/1/21 46/2/21
f 44/7/6 42/12/6 46/12/6 48/7/6
f 43/8/22 44/7/22 48/7/22 47/8/22
f 51/8/23 52/7/23 56/7/23 55/8/23
f 47/8/24 48/7/24 52/7/24 51/8/24
f 45/10/5 47/8/5 51/8/5 49/10/5
f 46/2/25 45/1/25 49/1/25 50/2/25
f 53/10/5 55/8/5 59/8/5 57/10/5
f 49/10/5 51/8/5 55/8/5 53/10/5
f 50/2/26 49/1/26 53/1/26 54/2/26
f 52/7/6 50/12/6 54/12/6 56/7/6
f 60/7/6 58/12/6 62/12/6 64/7/6
f 54/2/27 53/1/27 57/1/27 58/2/27
f 56/7/6 54/12/6 58/12/6 60/7/6
f 55/8/28 56/7/28 60/7/28 59/8/28
f 63/8/29 64/7/29 62/13/29 61/14/29
f 59/8/30 60/7/30 64/7/30 63/8/30
f 57/10/5 59/8/5 63/8/5 61/10/5
f 58/2/31 57/1/31 61/1/31 62/2/31
f 68/8/1 67/7/1 66/13/1 65/14/1
f 9/10/6 13/8/6 68/8/6 65/10/6
f 14/7/6 10/12/6 66/12/6 67/7/6
f 13/8/6 14/7/6 67/7/6 68/8/6
f 69/1/1 70/2/1 72/3/1 71/4/1
f 71/4/2 72/3/2 76/5/2 75/6/2
f 75/6/3 76/5/3 74/7/3 73/8/3
f 70/2/32 69/1/32 77/1/32 78/2/32
f 71/9/5 75/6/5 73/8/5 69/10/5
f 76/5/6 72/11/6 70/12/6 74/7/6
f 77/10/5 79/8/5 83/8/5 81/10/5
f 69/10/5 73/8/5 79/8/5 77/10/5
f 74/7/6 70/12/6 78/12/6 80/7/6
f 73/8/33 74/7/33 80/7/33 79/8/33
f 84/7/6 82/12/6 86/12/6 88/7/6
f 78/2/34 77/1/34 81/1/34 82/2/34
f 80/7/6 78/12/6 82/12/6 84/7/6
f 79/8/35 80/7/35 84/7/35 83/8/35
f 85/10/5 87/8/5 91/8/5 89/10/5
f 83/8/36 84/7/36 88/7/36 87/8/36
f 81/10/5 83/8/5 87/8/5 85/10/5
f 82/2/37 81/1/37 85/1/37 86/2/37
f 89/10/5 91/8/5 95/8/5 93/10/5
f 86/2/38 85/1/38 89/1/38 90/2/38
f 88/7/6 86/12/6 90/12/6 92/7/6
f 87/8/39 88/7/39 92/7/39 91/8/39
f 96/7/6 94/12/6 98/12/6 100/7/6
f 90/2/40 89/1/40 93/1/40 94/2/40
f 92/7/6 90/12/6 94/12/6 96/7/6
f 91/8/41 92/7/41 96/7/41 95/8/41
f 97/10/5 99/8/5 103/8/5 101/10/5
f 95/8/42 96/7/42 100/7/42 99/8/42
f 93/10/5 95/8/5 99/8/5 97/10/5
f 94/2/43 93/1/43 97/1/43 98/2/43
f 102/2/44 101/1/44 105/1/44 106/2/44
f 98/2/45 97/1/45 101/1/45 102/2/45
f 100/7/6 98/12/6 102/12/6 104/7/6
f 99/8/46 100/7/46 104/7/46 103/8/46
f 108/7/6 106/12/6 110/12/6 112/7/6
f 104/7/6 102/12/6 106/12/6 108/7/6
f 103/8/47 104/7/47 108/7/47 107/8/47
f 101/10/5 103/8/5 107/8/5 105/10/5
f 109/10/5 111/8/5 115/8/5 113/10/5
f 107/8/48 108/7/48 112/7/48 111/8/48
f 105/10/5 107/8/5 111/8/5 109/10/5
f 106/2/49 105/1/49 109/1/49 110/2/49
f 116/7/6 114/12/6 118/12/6 120/7/6
f 110/2/50 109/1/50 113/1/50 114/2/50
f 112/7/6 110/12/6 114/12/6 116/7/6
f 111/8/51 112/7/51 116/7/51 115/8/51
f 119/8/52 120/7/52 124/7/52 123/8/52
f 115/8/53 116/7/53 120/7/53 119/8/53
f 113/10/5 115/8/5 119/8/5 117/10/5
f 114/2/54 113/1/54 117/1/54 118/2/54
f 123/8/55 124/7/55 122/13/55 121/14/55
f 117/10/5 119/8/5 123/8/5 121/10/5
f 118/2/56 117/1/56 121/1/56 122/2/56
f 120/7/6 118/12/6 122/12/6 124/7/6
