# Blender 5.0.0
# www.blender.org
mtllib Belt.mtl
o Cube.002
v 1.000000 0.000000 0.800000
v 1.000000 0.900000 0.800000
v -1.000000 0.000000 0.800000
v -1.000000 0.900000 0.800000
v 1.000000 0.000000 -0.800000
v 1.000000 0.900000 -0.800000
v -1.000000 0.000000 -0.800000
v -1.000000 0.900000 -0.800000
v -1.000000 0.000000 0.700000
v -1.000000 0.900000 0.700000
v 1.000000 0.000000 0.700000
v 1.000000 0.900000 0.700000
v -1.000000 0.900000 -0.700000
v 1.000000 0.000000 -0.700000
v -1.000000 0.000000 -0.700000
v 1.000000 0.900000 -0.700000
v 1.000000 1.000000 0.800000
v -1.000000 1.000000 0.800000
v -1.000000 1.000000 -0.700000
v -1.000000 1.000000 -0.800000
v 1.000000 1.000000 -0.800000
v 1.000000 1.000000 0.700000
v -1.000000 1.000000 0.700000
v 1.000000 1.000000 -0.700000
vn -0.0000 -0.0000 1.0000
vn -1.0000 -0.0000 -0.0000
vn -0.0000 -0.0000 -1.0000
vn 1.0000 -0.0000 -0.0000
vn -0.0000 -1.0000 -0.0000
vn -0.0000 1.0000 -0.0000
vt 0.375000 0.000000
vt 0.625000 0.000000
vt 0.625000 0.250000
vt 0.375000 0.250000
vt 0.375000 0.484375
vt 0.625000 0.484375
vt 0.625000 0.500000
vt 0.375000 0.500000
vt 0.625000 0.750000
vt 0.375000 0.750000
vt 0.375000 0.984375
vt 0.625000 0.984375
vt 0.625000 1.000000
vt 0.375000 1.000000
vt 0.359375 0.500000
vt 0.359375 0.750000
vt 0.625000 0.265625
vt 0.640625 0.500000
vt 0.859375 0.500000
vt 0.859375 0.750000
vt 0.640625 0.750000
vt 0.125000 0.500000
vt 0.140625 0.500000
vt 0.140625 0.750000
vt 0.125000 0.750000
vt 0.375000 0.765625
vt 0.625000 0.765625
vt 0.375000 0.265625
vt 0.875000 0.500000
vt 0.875000 0.750000
s 0
usemtl Gelb
f 10/17/2 4/3/2 18/3/2 23/17/2
f 6/9/3 8/7/3 20/7/3 21/9/3
f 23/19/6 18/29/6 17/30/6 22/20/6
f 20/7/6 19/18/6 24/21/6 21/9/6
f 4/3/1 2/2/1 17/2/1 18/3/1
f 2/13/4 12/12/4 22/12/4 17/13/4
f 12/20/3 10/19/3 23/19/3 22/20/3
f 8/7/2 13/6/2 19/6/2 20/7/2
f 13/18/1 16/21/1 24/21/1 19/18/1
f 16/27/4 6/9/4 21/9/4 24/27/4
usemtl Material
f 1/1/1 2/2/1 4/3/1 3/4/1
f 15/5/2 13/6/2 8/7/2 7/8/2
f 7/8/3 8/7/3 6/9/3 5/10/3
f 11/11/4 12/12/4 2/13/4 1/14/4
f 15/15/5 7/8/5 5/10/5 14/16/5
f 13/18/6 10/19/6 12/20/6 16/21/6
f 3/22/5 9/23/5 11/24/5 1/25/5
f 14/26/4 16/27/4 12/12/4 11/11/4
f 3/4/2 4/3/2 10/17/2 9/28/2
f 5/10/4 6/9/4 16/27/4 14/26/4
f 9/23/5 15/15/5 14/16/5 11/24/5
f 9/28/2 10/17/2 13/6/2 15/5/2
