# Blender 5.0.0
# www.blender.org
mtllib Regal_2.mtl
o Schwerlastregal_Querträger
v -8.183672 0.021721 0.505001
v -8.183672 0.231721 0.505001
v -8.183672 0.021721 5.895000
v -8.183672 0.231721 5.895000
v -8.253673 0.021721 0.505001
v -8.253673 0.231721 0.505001
v -8.253672 0.021721 5.895000
v -8.253672 0.231721 5.895000
v -8.183672 0.021721 0.519001
v -8.183672 0.231721 0.519001
v -8.253673 0.021721 0.519001
v -8.253673 0.231721 0.519001
v -8.183672 0.231721 5.881001
v -8.253672 0.021721 5.881001
v -8.183672 0.021721 5.881001
v -8.253672 0.231721 5.881001
v -8.267672 0.231721 5.895000
v -8.267672 0.021721 5.895000
v -8.267672 0.021721 5.881001
v -8.267673 0.231721 0.519001
v -8.267673 0.231721 0.505001
v -8.267673 0.021721 0.505001
v -8.267673 0.021721 0.519001
v -8.267672 0.231721 5.881001
v -8.253673 0.231721 0.435000
v -8.253673 0.021721 0.435000
v -8.267673 0.231721 0.435000
v -8.267673 0.021721 0.435000
v -8.253672 0.231721 5.895000
v -8.253672 0.021721 5.895000
v -8.267672 0.231721 5.895000
v -8.267672 0.021721 5.895000
v -8.253672 0.231721 5.965001
v -8.253672 0.021721 5.965001
v -8.267672 0.231721 5.965001
v -8.267672 0.021721 5.965001
v -8.183672 -0.006279 0.519001
v -8.183672 -0.006279 0.505001
v -8.253672 -0.006279 5.895000
v -8.183672 -0.006279 5.895000
v -8.253672 -0.006279 5.881001
v -8.253673 -0.006279 0.505001
v -8.253673 -0.006279 0.519001
v -8.183672 -0.006279 5.881001
v -8.267672 -0.006279 5.881001
v -8.267672 -0.006279 5.895000
v -8.267673 -0.006279 0.505001
v -8.267673 -0.006279 0.519001
v -8.267673 -0.006279 0.435000
v -8.253673 -0.006279 0.435000
v -8.267672 -0.006279 5.895000
v -8.253672 -0.006279 5.895000
v -8.267672 -0.006279 5.965001
v -8.253672 -0.006279 5.965001
v -8.183672 0.259721 5.881001
v -8.183672 0.259721 5.895000
v -8.253672 0.259721 5.895000
v -8.253673 0.259721 0.519001
v -8.253673 0.259721 0.505001
v -8.183672 0.259721 0.505001
v -8.183672 0.259721 0.519001
v -8.253672 0.259721 5.881001
v -8.267673 0.259721 0.519001
v -8.267673 0.259721 0.505001
v -8.267672 0.259721 5.895000
v -8.267672 0.259721 5.881001
v -8.253673 0.259721 0.435000
v -8.267673 0.259721 0.435000
v -8.267672 0.259721 5.895000
v -8.253672 0.259721 5.895000
v -8.267672 0.259721 5.965001
v -8.253672 0.259721 5.965001
v -8.253672 0.259721 5.881001
v -8.253673 0.259721 0.519001
v -8.183672 0.259721 0.519001
v -8.183672 0.259721 5.881001
v -6.546329 0.231721 0.519001
v -6.546329 0.231721 5.881000
v -6.546329 0.259721 0.519001
v -6.546329 0.259721 5.881000
v -6.616329 0.021721 5.894999
v -6.616329 0.231721 5.894999
v -6.616329 0.021721 0.504999
v -6.616329 0.231721 0.504999
v -6.546329 0.021721 5.894999
v -6.546329 0.231721 5.894999
v -6.546329 0.021721 0.504999
v -6.546329 0.231721 0.504999
v -6.616329 0.021721 5.880998
v -6.616329 0.231721 5.880998
v -6.546329 0.021721 5.880998
v -6.546329 0.231721 5.880998
v -6.616329 0.231721 0.518999
v -6.546329 0.021721 0.518999
v -6.616329 0.021721 0.518999
v -6.546329 0.231721 0.518999
v -6.532329 0.231721 0.504999
v -6.532329 0.021721 0.504999
v -6.532329 0.021721 0.518999
v -6.532329 0.231721 5.880998
v -6.532329 0.231721 5.894999
v -6.532329 0.021721 5.894999
v -6.532329 0.021721 5.880998
v -6.532329 0.231721 0.518999
v -6.546329 0.231721 5.964999
v -6.546329 0.021721 5.964999
v -6.532329 0.231721 5.964999
v -6.532329 0.021721 5.964999
v -6.546329 0.231721 0.504999
v -6.546329 0.021721 0.504999
v -6.532329 0.231721 0.504999
v -6.532329 0.021721 0.504999
v -6.546329 0.231721 0.434999
v -6.546329 0.021721 0.434999
v -6.532329 0.231721 0.434999
v -6.532329 0.021721 0.434999
v -6.616329 -0.006279 5.880998
v -6.616329 -0.006279 5.894999
v -6.546329 -0.006279 0.504999
v -6.616329 -0.006279 0.504999
v -6.546329 -0.006279 0.518999
v -6.546329 -0.006279 5.894999
v -6.546329 -0.006279 5.880998
v -6.616329 -0.006279 0.518999
v -6.532329 -0.006279 0.518999
v -6.532329 -0.006279 0.504999
v -6.532329 -0.006279 5.894999
v -6.532329 -0.006279 5.880998
v -6.532329 -0.006279 5.964999
v -6.546329 -0.006279 5.964999
v -6.532329 -0.006279 0.504999
v -6.546329 -0.006279 0.504999
v -6.532329 -0.006279 0.434999
v -6.546329 -0.006279 0.434999
v -6.616329 0.259721 0.518999
v -6.616329 0.259721 0.504999
v -6.546329 0.259721 0.504999
v -6.546329 0.259721 5.880998
v -6.546329 0.259721 5.894999
v -6.616329 0.259721 5.894999
v -6.616329 0.259721 5.880998
v -6.546329 0.259721 0.518999
v -6.532329 0.259721 5.880998
v -6.532329 0.259721 5.894999
v -6.532329 0.259721 0.504999
v -6.532329 0.259721 0.518999
v -6.546329 0.259721 5.964999
v -6.532329 0.259721 5.964999
v -6.532329 0.259721 0.504999
v -6.546329 0.259721 0.504999
v -6.532329 0.259721 0.434999
v -6.546329 0.259721 0.434999
vn 1.0000 -0.0000 -0.0000
vn -0.0000 -0.0000 1.0000
vn -0.0000 -0.0000 -1.0000
vn -1.0000 -0.0000 -0.0000
vn -0.0000 -1.0000 -0.0000
vn -0.0000 1.0000 -0.0000
vt 0.409794 0.409174
vt 0.408734 0.409174
vt 0.408734 0.409172
vt 0.409794 0.409172
vt 0.408734 0.408111
vt 0.409794 0.408111
vt 0.409794 0.407051
vt 0.408734 0.407051
vt 0.408734 0.405991
vt 0.409794 0.405991
vt 0.408734 0.407054
vt 0.408734 0.408109
vt 0.410855 0.408109
vt 0.409794 0.408109
vt 0.409794 0.407054
vt 0.410855 0.407054
vt 0.409794 0.410232
vt 0.408734 0.410232
vt 0.408734 0.410229
vt 0.409794 0.410229
vt 0.407674 0.407054
vt 0.410855 0.407051
vt 0.410855 0.408111
vt 0.409424 0.407844
vt 0.409424 0.407844
vt 0.409424 0.407786
vt 0.409366 0.407786
vt 0.409366 0.407786
vt 0.409424 0.407786
vt 0.409366 0.407844
vt 0.409366 0.407844
vt 0.407674 0.408109
s 0
usemtl Material.004
f 15/1/1 13/2/1 4/3/1 3/4/1
f 3/4/2 4/3/2 8/5/2 7/6/2
f 29/5/3 31/5/3 69/5/3 70/5/3
f 5/7/3 6/8/3 2/9/3 1/10/3
f 30/6/1 34/6/1 54/6/1 52/6/1
f 17/5/2 8/5/2 57/5/2 65/5/2
f 12/11/4 16/12/4 73/12/4 74/11/4
f 15/13/5 14/14/5 11/15/5 9/16/5
f 14/14/4 16/12/4 12/11/4 11/15/4
f 1/17/1 2/18/1 10/19/1 9/20/1
f 11/15/2 23/15/2 48/15/2 43/15/2
f 19/14/3 14/14/3 41/14/3 45/14/3
f 4/3/1 13/2/1 55/2/1 56/3/1
f 9/20/1 10/19/1 13/2/1 15/1/1
f 23/15/4 20/11/4 21/8/4 22/7/4
f 18/6/4 17/5/4 24/12/4 19/14/4
f 12/11/2 10/21/2 61/21/2 58/11/2
f 7/6/6 8/5/6 29/5/6 30/6/6
f 16/12/3 14/14/3 19/14/3 24/12/3
f 7/6/2 18/6/2 46/6/2 39/6/2
f 11/15/2 12/11/2 20/11/2 23/15/2
f 26/7/1 5/7/1 42/7/1 50/7/1
f 25/8/3 26/7/3 28/7/3 27/8/3
f 6/8/1 5/7/1 26/7/1 25/8/1
f 22/7/4 21/8/4 27/8/4 28/7/4
f 16/12/3 24/12/3 66/12/3 62/12/3
f 21/8/4 20/11/4 63/11/4 64/8/4
f 17/5/6 18/6/6 32/6/6 31/5/6
f 8/5/6 17/5/6 31/5/6 29/5/6
f 18/6/6 7/6/6 30/6/6 32/6/6
f 34/6/2 33/5/2 35/5/2 36/6/2
f 30/6/1 29/5/1 33/5/1 34/6/1
f 3/4/2 7/6/2 39/6/2 40/4/2
f 31/5/4 32/6/4 36/6/4 35/5/4
f 37/16/5 43/15/5 42/7/5 38/22/5
f 42/7/5 43/15/5 48/15/5 47/7/5
f 40/23/5 39/6/5 41/14/5 44/13/5
f 42/7/5 47/7/5 49/7/5 50/7/5
f 41/14/5 39/6/5 46/6/5 45/14/5
f 51/6/5 52/6/5 54/6/5 53/6/5
f 18/6/4 19/14/4 45/14/4 46/6/4
f 15/1/1 3/4/1 40/4/1 44/1/1
f 1/17/1 9/20/1 37/20/1 38/17/1
f 36/6/4 32/6/4 51/6/4 53/6/4
f 28/7/3 26/7/3 50/7/3 49/7/3
f 9/16/2 11/15/2 43/15/2 37/16/2
f 23/15/4 22/7/4 47/7/4 48/15/4
f 5/7/3 1/10/3 38/10/3 42/7/3
f 14/14/3 15/13/3 44/13/3 41/14/3
f 32/6/3 30/6/3 52/6/3 51/6/3
f 22/7/4 28/7/4 49/7/4 47/7/4
f 34/6/2 36/6/2 53/6/2 54/6/2
f 57/24/6 62/25/6 66/25/6 65/24/6
f 58/26/6 61/27/6 60/28/6 59/29/6
f 57/24/6 56/30/6 55/31/6 62/25/6
f 58/26/6 59/29/6 64/29/6 63/26/6
f 64/29/6 59/29/6 67/29/6 68/29/6
f 70/24/6 69/24/6 71/24/6 72/24/6
f 25/8/3 27/8/3 68/8/3 67/8/3
f 35/5/2 33/5/2 72/5/2 71/5/2
f 2/9/3 6/8/3 59/8/3 60/9/3
f 13/32/3 16/12/3 62/12/3 55/32/3
f 20/11/2 12/11/2 58/11/2 63/11/2
f 24/12/4 17/5/4 65/5/4 66/12/4
f 31/5/4 35/5/4 71/5/4 69/5/4
f 8/5/2 4/3/2 56/3/2 57/5/2
f 10/19/1 2/18/1 60/18/1 61/19/1
f 6/8/1 25/8/1 67/8/1 59/8/1
f 33/5/1 29/5/1 70/5/1 72/5/1
f 27/8/4 21/8/4 64/8/4 68/8/4
f 73/12/6 76/32/6 75/21/6 74/11/6
f 16/12/2 13/32/2 76/32/2 73/12/2
f 75/21/6 76/32/6 80/32/6 79/21/6
f 10/21/3 12/11/3 74/11/3 75/21/3
f 78/2/1 77/19/1 79/19/1 80/2/1
f 10/21/3 75/21/3 79/21/3 77/21/3
f 13/2/5 10/19/5 77/19/5 78/2/5
f 76/32/2 13/32/2 78/32/2 80/32/2
f 95/1/4 93/2/4 84/3/4 83/4/4
f 83/4/3 84/3/3 88/5/3 87/6/3
f 109/5/2 111/5/2 149/5/2 150/5/2
f 85/7/2 86/8/2 82/9/2 81/10/2
f 110/6/4 114/6/4 134/6/4 132/6/4
f 97/5/3 88/5/3 137/5/3 145/5/3
f 96/12/6 93/32/6 90/21/6 92/11/6
f 95/13/5 94/14/5 91/15/5 89/16/5
f 94/14/1 96/12/1 92/11/1 91/15/1
f 81/17/4 82/18/4 90/19/4 89/20/4
f 91/15/3 103/15/3 128/15/3 123/15/3
f 99/14/2 94/14/2 121/14/2 125/14/2
f 84/3/4 93/2/4 135/2/4 136/3/4
f 89/20/4 90/19/4 93/2/4 95/1/4
f 103/15/1 100/11/1 101/8/1 102/7/1
f 98/6/1 97/5/1 104/12/1 99/14/1
f 92/11/3 90/21/3 141/21/3 138/11/3
f 87/6/6 88/5/6 109/5/6 110/6/6
f 96/12/2 94/14/2 99/14/2 104/12/2
f 87/6/3 98/6/3 126/6/3 119/6/3
f 91/15/3 92/11/3 100/11/3 103/15/3
f 106/7/4 85/7/4 122/7/4 130/7/4
f 105/8/2 106/7/2 108/7/2 107/8/2
f 86/8/4 85/7/4 106/7/4 105/8/4
f 102/7/1 101/8/1 107/8/1 108/7/1
f 96/12/2 104/12/2 146/12/2 142/12/2
f 101/8/1 100/11/1 143/11/1 144/8/1
f 97/5/6 98/6/6 112/6/6 111/5/6
f 88/5/6 97/5/6 111/5/6 109/5/6
f 98/6/6 87/6/6 110/6/6 112/6/6
f 114/6/3 113/5/3 115/5/3 116/6/3
f 110/6/4 109/5/4 113/5/4 114/6/4
f 83/4/3 87/6/3 119/6/3 120/4/3
f 111/5/1 112/6/1 116/6/1 115/5/1
f 117/16/5 123/15/5 122/7/5 118/22/5
f 122/7/5 123/15/5 128/15/5 127/7/5
f 120/23/5 119/6/5 121/14/5 124/13/5
f 122/7/5 127/7/5 129/7/5 130/7/5
f 121/14/5 119/6/5 126/6/5 125/14/5
f 131/6/5 132/6/5 134/6/5 133/6/5
f 98/6/1 99/14/1 125/14/1 126/6/1
f 95/1/4 83/4/4 120/4/4 124/1/4
f 81/17/4 89/20/4 117/20/4 118/17/4
f 116/6/1 112/6/1 131/6/1 133/6/1
f 108/7/2 106/7/2 130/7/2 129/7/2
f 89/16/3 91/15/3 123/15/3 117/16/3
f 103/15/1 102/7/1 127/7/1 128/15/1
f 85/7/2 81/10/2 118/10/2 122/7/2
f 94/14/2 95/13/2 124/13/2 121/14/2
f 112/6/2 110/6/2 132/6/2 131/6/2
f 102/7/1 108/7/1 129/7/1 127/7/1
f 114/6/3 116/6/3 133/6/3 134/6/3
f 137/24/6 142/25/6 146/25/6 145/24/6
f 138/26/6 141/27/6 140/28/6 139/29/6
f 137/24/6 136/30/6 135/31/6 142/25/6
f 138/26/6 139/29/6 144/29/6 143/26/6
f 144/29/6 139/29/6 147/29/6 148/29/6
f 150/24/6 149/24/6 151/24/6 152/24/6
f 105/8/2 107/8/2 148/8/2 147/8/2
f 115/5/3 113/5/3 152/5/3 151/5/3
f 82/9/2 86/8/2 139/8/2 140/9/2
f 93/32/2 96/12/2 142/12/2 135/32/2
f 100/11/3 92/11/3 138/11/3 143/11/3
f 104/12/1 97/5/1 145/5/1 146/12/1
f 111/5/1 115/5/1 151/5/1 149/5/1
f 88/5/3 84/3/3 136/3/3 137/5/3
f 90/19/4 82/18/4 140/18/4 141/19/4
f 86/8/4 105/8/4 147/8/4 139/8/4
f 113/5/4 109/5/4 150/5/4 152/5/4
f 107/8/1 101/8/1 144/8/1 148/8/1
