# Blender 5.0.0
# www.blender.org
mtllib Regal_3.mtl
o Schwerlastregal_Querträger.001
v -4.635328 0.035000 5.895000
v -4.635328 0.245000 5.895000
v -4.635328 0.035000 0.505000
v -4.635328 0.245000 0.505000
v -4.565329 0.035000 5.895000
v -4.565329 0.245000 5.895000
v -4.565329 0.035000 0.505000
v -4.565329 0.245000 0.505000
v -4.635328 0.035000 5.880999
v -4.635328 0.245000 5.880999
v -4.565329 0.035000 5.880999
v -4.565329 0.245000 5.880999
v -4.635328 0.245000 0.519000
v -4.565329 0.035000 0.519000
v -4.635328 0.035000 0.519000
v -4.565329 0.245000 0.519000
v -4.551329 0.245000 0.505000
v -4.551329 0.035000 0.505000
v -4.551329 0.035000 0.519000
v -4.551329 0.245000 5.880999
v -4.551329 0.245000 5.895000
v -4.551329 0.035000 5.895000
v -4.551329 0.035000 5.880999
v -4.551329 0.245000 0.519000
v -4.565329 0.245000 5.965000
v -4.565329 0.035000 5.965000
v -4.551329 0.245000 5.965000
v -4.551329 0.035000 5.965000
v -4.565329 0.245000 0.505000
v -4.565329 0.035000 0.505000
v -4.551329 0.245000 0.505000
v -4.551329 0.035000 0.505000
v -4.565329 0.245000 0.434999
v -4.565329 0.035000 0.434999
v -4.551329 0.245000 0.434999
v -4.551329 0.035000 0.434999
v -4.635328 0.007000 5.880999
v -4.635328 0.007000 5.895000
v -4.565329 0.007000 0.505000
v -4.635328 0.007000 0.505000
v -4.565329 0.007000 0.519000
v -4.565329 0.007000 5.895000
v -4.565329 0.007000 5.880999
v -4.635328 0.007000 0.519000
v -4.551329 0.007000 0.519000
v -4.551329 0.007000 0.505000
v -4.551329 0.007000 5.895000
v -4.551329 0.007000 5.880999
v -4.551329 0.007000 5.965000
v -4.565329 0.007000 5.965000
v -4.551329 0.007000 0.505000
v -4.565329 0.007000 0.505000
v -4.551329 0.007000 0.434999
v -4.565329 0.007000 0.434999
v -4.635328 0.273000 0.519000
v -4.635328 0.273000 0.505000
v -4.565329 0.273000 0.505000
v -4.565329 0.273000 5.880999
v -4.565329 0.273000 5.895000
v -4.635328 0.273000 5.895000
v -4.635328 0.273000 5.880999
v -4.565329 0.273000 0.519000
v -4.551329 0.273000 5.880999
v -4.551329 0.273000 5.895000
v -4.551329 0.273000 0.505000
v -4.551329 0.273000 0.519000
v -4.565329 0.273000 5.965000
v -4.551329 0.273000 5.965000
v -4.551329 0.273000 0.505000
v -4.565329 0.273000 0.505000
v -4.551329 0.273000 0.434999
v -4.565329 0.273000 0.434999
vn -1.0000 -0.0000 -0.0000
vn -0.0000 -0.0000 -1.0000
vn -0.0000 -0.0000 1.0000
vn -0.0000 1.0000 -0.0000
vn -0.0000 -1.0000 -0.0000
vn 1.0000 -0.0000 -0.0000
vt 0.409339 0.405609
vt 0.408272 0.405609
vt 0.408272 0.405606
vt 0.409339 0.405606
vt 0.408272 0.404539
vt 0.409339 0.404539
vt 0.409339 0.403471
vt 0.408272 0.403471
vt 0.408272 0.402404
vt 0.409339 0.402404
vt 0.408272 0.404536
vt 0.407205 0.404536
vt 0.407205 0.403474
vt 0.408272 0.403474
vt 0.410406 0.404536
vt 0.409339 0.404536
vt 0.409339 0.403474
vt 0.410406 0.403474
vt 0.409339 0.406673
vt 0.408272 0.406673
vt 0.408272 0.406670
vt 0.409339 0.406670
vt 0.410406 0.403471
vt 0.410406 0.404539
vt 0.408966 0.404269
vt 0.408966 0.404269
vt 0.408966 0.404211
vt 0.408907 0.404211
vt 0.408907 0.404211
vt 0.408966 0.404211
vt 0.408907 0.404269
vt 0.408907 0.404269
s 0
usemtl Material.004
f 15/1/1 13/2/1 4/3/1 3/4/1
f 3/4/2 4/3/2 8/5/2 7/6/2
f 29/5/3 31/5/3 69/5/3 70/5/3
f 5/7/3 6/8/3 2/9/3 1/10/3
f 30/6/1 34/6/1 54/6/1 52/6/1
f 17/5/2 8/5/2 57/5/2 65/5/2
f 16/11/4 13/12/4 10/13/4 12/14/4
f 15/15/5 14/16/5 11/17/5 9/18/5
f 14/16/6 16/11/6 12/14/6 11/17/6
f 1/19/1 2/20/1 10/21/1 9/22/1
f 11/17/2 23/17/2 48/17/2 43/17/2
f 19/16/3 14/16/3 41/16/3 45/16/3
f 4/3/1 13/2/1 55/2/1 56/3/1
f 9/22/1 10/21/1 13/2/1 15/1/1
f 23/17/6 20/14/6 21/8/6 22/7/6
f 18/6/6 17/5/6 24/11/6 19/16/6
f 12/14/2 10/13/2 61/13/2 58/14/2
f 7/6/4 8/5/4 29/5/4 30/6/4
f 16/11/3 14/16/3 19/16/3 24/11/3
f 7/6/2 18/6/2 46/6/2 39/6/2
f 11/17/2 12/14/2 20/14/2 23/17/2
f 26/7/1 5/7/1 42/7/1 50/7/1
f 25/8/3 26/7/3 28/7/3 27/8/3
f 6/8/1 5/7/1 26/7/1 25/8/1
f 22/7/6 21/8/6 27/8/6 28/7/6
f 16/11/3 24/11/3 66/11/3 62/11/3
f 21/8/6 20/14/6 63/14/6 64/8/6
f 17/5/4 18/6/4 32/6/4 31/5/4
f 8/5/4 17/5/4 31/5/4 29/5/4
f 18/6/4 7/6/4 30/6/4 32/6/4
f 34/6/2 33/5/2 35/5/2 36/6/2
f 30/6/1 29/5/1 33/5/1 34/6/1
f 3/4/2 7/6/2 39/6/2 40/4/2
f 31/5/6 32/6/6 36/6/6 35/5/6
f 37/18/5 43/17/5 42/7/5 38/23/5
f 42/7/5 43/17/5 48/17/5 47/7/5
f 40/24/5 39/6/5 41/16/5 44/15/5
f 42/7/5 47/7/5 49/7/5 50/7/5
f 41/16/5 39/6/5 46/6/5 45/16/5
f 51/6/5 52/6/5 54/6/5 53/6/5
f 18/6/6 19/16/6 45/16/6 46/6/6
f 15/1/1 3/4/1 40/4/1 44/1/1
f 1/19/1 9/22/1 37/22/1 38/19/1
f 36/6/6 32/6/6 51/6/6 53/6/6
f 28/7/3 26/7/3 50/7/3 49/7/3
f 9/18/2 11/17/2 43/17/2 37/18/2
f 23/17/6 22/7/6 47/7/6 48/17/6
f 5/7/3 1/10/3 38/10/3 42/7/3
f 14/16/3 15/15/3 44/15/3 41/16/3
f 32/6/3 30/6/3 52/6/3 51/6/3
f 22/7/6 28/7/6 49/7/6 47/7/6
f 34/6/2 36/6/2 53/6/2 54/6/2
f 57/25/4 62/26/4 66/26/4 65/25/4
f 58/27/4 61/28/4 60/29/4 59/30/4
f 57/25/4 56/31/4 55/32/4 62/26/4
f 58/27/4 59/30/4 64/30/4 63/27/4
f 64/30/4 59/30/4 67/30/4 68/30/4
f 70/25/4 69/25/4 71/25/4 72/25/4
f 25/8/3 27/8/3 68/8/3 67/8/3
f 35/5/2 33/5/2 72/5/2 71/5/2
f 2/9/3 6/8/3 59/8/3 60/9/3
f 13/12/3 16/11/3 62/11/3 55/12/3
f 20/14/2 12/14/2 58/14/2 63/14/2
f 24/11/6 17/5/6 65/5/6 66/11/6
f 31/5/6 35/5/6 71/5/6 69/5/6
f 8/5/2 4/3/2 56/3/2 57/5/2
f 10/21/1 2/20/1 60/20/1 61/21/1
f 6/8/1 25/8/1 67/8/1 59/8/1
f 33/5/1 29/5/1 70/5/1 72/5/1
f 27/8/6 21/8/6 64/8/6 68/8/6
