# Blender 5.0.0
# www.blender.org
mtllib T_Träger_Ecke.mtl
o T-Träger_4
v -7.000000 0.000000 -2.466666
v -7.000000 0.060000 -2.466666
v -7.000000 0.060000 -2.626667
v -7.000000 0.340000 -2.466666
v -7.000000 0.340000 -2.626667
v -7.000000 0.400000 -2.466666
v -7.800000 0.000000 -1.666667
v -7.800000 0.060000 -1.666667
v -7.960000 0.060000 -1.666667
v -8.040000 0.060000 -1.666667
v -8.200000 0.000000 -1.666667
v -8.200000 0.060000 -1.666667
v -8.040000 0.060000 -2.466666
v -8.040000 0.060000 -2.466666
v -8.040000 0.060000 -2.626667
v -8.200000 0.000000 -2.466666
v -8.200000 0.060000 -2.466666
v -7.800000 0.340000 -1.666667
v -7.800000 0.400000 -1.666667
v -7.960000 0.340000 -1.666667
v -8.040000 0.340000 -1.666667
v -8.200000 0.340000 -1.666667
v -8.200000 0.400000 -1.666667
v -8.040000 0.340000 -2.466666
v -8.040000 0.340000 -2.466666
v -8.040000 0.340000 -2.626667
v -8.200000 0.340000 -2.466666
v -8.200000 0.400000 -2.466666
v -7.000000 0.000000 -2.866667
v -7.000000 0.060000 -2.706666
v -7.000000 0.060000 -2.866667
v -7.000000 0.340000 -2.706666
v -7.000000 0.340000 -2.866667
v -7.000000 0.400000 -2.866667
v -8.040000 0.060000 -2.706666
v -8.040000 0.060000 -2.866667
v -8.040000 0.060000 -2.866667
v -8.200000 0.000000 -2.866667
v -8.200000 0.060000 -2.866667
v -8.040000 0.340000 -2.706666
v -8.040000 0.340000 -2.866667
v -8.040000 0.340000 -2.866667
v -8.200000 0.340000 -2.866667
v -8.200000 0.400000 -2.866667
v -8.200000 0.400000 -2.866667
v -8.200000 0.340000 -2.866667
v -8.200000 0.060000 -2.866667
v -8.200000 0.000000 -2.866667
v -7.800000 0.340000 -2.866667
v -7.800000 0.400000 -2.866667
v -7.800000 0.000000 -2.866667
v -7.800000 0.060000 -2.866667
v -7.960000 0.060000 -2.866667
v -7.960000 0.340000 -2.866667
v -8.040000 0.340000 -2.866667
v -8.040000 0.060000 -2.866667
v -7.800000 0.060000 -2.820211
v -7.800000 0.060000 -2.707067
v -7.960000 0.060000 -2.707067
v -7.960000 0.339600 -2.707067
v -7.960000 0.339600 -2.866667
v -7.000000 0.060000 -2.707067
v -8.040000 0.060000 -2.707067
v -8.040000 0.060000 -2.707067
v -8.040000 0.339600 -2.866667
v -8.040000 0.060000 -2.866667
v -8.040000 0.339600 -2.707067
v -7.821280 0.060000 -2.707067
v -7.800000 0.060000 -2.743590
v -7.521943 0.060000 -2.786368
v -7.800000 0.060000 -2.866667
v -7.960000 0.060000 -2.866667
v -7.806095 0.060000 -2.820953
v -7.800000 0.060000 -2.866667
v -7.800000 0.060000 -2.706666
v -7.960000 0.060000 -2.706666
v -7.816754 0.060000 -2.741012
vn -0.0000 -0.0000 1.0000
vn -1.0000 -0.0000 -0.0000
vn 1.0000 -0.0000 -0.0000
vn -0.0000 -1.0000 -0.0000
vn -0.0000 1.0000 -0.0000
vn -0.0000 -0.0000 -1.0000
vn -0.9887 -0.1501 -0.0000
vt 0.035972 0.026164
vt 0.034844 0.026164
vt 0.034844 0.018646
vt 0.035972 0.018646
vt 0.035972 0.021653
vt 0.041234 0.021653
vt 0.041234 0.018646
vt 0.042362 0.018646
vt 0.042362 0.026164
vt 0.041234 0.026164
vt 0.041234 0.023157
vt 0.035972 0.023157
vt 0.042362 0.030675
vt 0.041234 0.030675
vt 0.035972 0.030675
vt 0.034844 0.030675
vt 0.042362 0.048717
vt 0.041234 0.048717
vt 0.041234 0.044207
vt 0.042362 0.044207
vt 0.035972 0.044806
vt 0.035972 0.048717
vt 0.034844 0.048717
vt 0.034844 0.044207
vt 0.035972 0.044207
vt 0.035972 0.044381
vt 0.031837 0.041199
vt 0.027327 0.041199
vt 0.027327 0.033682
vt 0.031837 0.033682
vt 0.045369 0.033682
vt 0.049880 0.033682
vt 0.049880 0.041199
vt 0.045369 0.041199
vt 0.042351 0.030606
vt 0.042362 0.030606
vt 0.042362 0.026506
vt 0.034844 0.026506
vt 0.034844 0.030061
vt 0.042351 0.030061
vt 0.027668 0.033682
vt 0.027668 0.036689
vt 0.031222 0.036689
vt 0.031222 0.033682
vt 0.031223 0.036689
vt 0.031223 0.036289
vt 0.031223 0.033682
vt 0.045437 0.036689
vt 0.049538 0.036689
vt 0.049538 0.033682
vt 0.045437 0.033682
vt 0.042362 0.029171
vt 0.042362 0.033682
vt 0.041234 0.033682
vt 0.041234 0.029772
vt 0.041234 0.029171
vt 0.035972 0.029772
vt 0.035972 0.033682
vt 0.034844 0.033682
vt 0.034844 0.029171
vt 0.035972 0.029171
vt 0.042362 0.041199
vt 0.041234 0.041199
vt 0.041234 0.038192
vt 0.035972 0.038192
vt 0.035972 0.041199
vt 0.034844 0.041199
vt 0.035972 0.036681
vt 0.035972 0.036689
vt 0.041234 0.036689
vt 0.041234 0.045109
vt 0.042362 0.045710
vt 0.041234 0.045710
vt 0.035972 0.045710
vt 0.034844 0.045710
vt 0.035972 0.045109
vt 0.030334 0.041199
vt 0.030334 0.033682
vt 0.046873 0.041199
vt 0.046873 0.033682
vt 0.034844 0.029786
vt 0.034844 0.033340
vt 0.042362 0.033340
vt 0.042362 0.029786
vt 0.030949 0.036689
vt 0.034503 0.036689
vt 0.034503 0.033682
vt 0.030949 0.033682
vt 0.046258 0.033682
vt 0.042704 0.033682
vt 0.042704 0.036689
vt 0.046258 0.036689
vt 0.042362 0.045095
vt 0.042362 0.041541
vt 0.034844 0.041541
vt 0.034844 0.045095
vt 0.030949 0.041192
vt 0.030949 0.041199
vt 0.031222 0.041199
vt 0.031222 0.041192
vt 0.034503 0.041199
vt 0.034503 0.041192
vt 0.031769 0.041192
vt 0.031769 0.041199
vt 0.031696 0.041192
vt 0.046258 0.038192
vt 0.042704 0.038192
vt 0.042704 0.041199
vt 0.046258 0.041199
vt 0.038603 0.033682
vt 0.038829 0.033682
vt 0.040107 0.033682
vt 0.039881 0.033682
vt 0.034844 0.038042
vt 0.034844 0.037561
vt 0.034844 0.040447
vt 0.042362 0.040447
vt 0.042362 0.037320
vt 0.034844 0.037320
vt 0.042362 0.038042
vt 0.042362 0.037561
vt 0.034844 0.036839
vt 0.034844 0.037319
vt 0.042362 0.036839
vt 0.042351 0.036839
vt 0.042351 0.037319
vt 0.030548 0.038042
vt 0.030548 0.036839
vt 0.030548 0.040447
vt 0.046658 0.036839
vt 0.046658 0.038042
vt 0.046658 0.040447
vt 0.038829 0.041199
vt 0.038603 0.041199
vt 0.039880 0.041199
vt 0.039881 0.041199
vt 0.040107 0.041199
vt 0.030715 0.041199
vt 0.030715 0.036570
vt 0.030998 0.036570
vt 0.031563 0.036570
vt 0.031563 0.036570
vt 0.031541 0.037896
vt 0.031563 0.037918
vt 0.031563 0.040140
vt 0.032544 0.038899
vt 0.030998 0.041199
vt 0.031563 0.041199
vt 0.034387 0.041199
vt 0.034387 0.036570
vt 0.031504 0.040215
vt 0.031488 0.041199
vt 0.046208 0.036570
vt 0.046208 0.041199
vt 0.046491 0.041199
vt 0.046491 0.036570
s 0
usemtl Material.004
f 12/1/1 11/2/1 7/3/1 8/4/1 9/5/1 20/6/1 18/7/1 19/8/1 23/9/1 22/10/1 21/11/1 10/12/1
f 22/10/2 23/9/2 45/13/2 46/14/2
f 11/2/2 12/1/2 47/15/2 48/16/2
f 19/17/3 18/18/3 49/19/3 50/20/3
f 58/21/3 8/22/3 7/23/3 51/24/3 52/25/3 57/26/3
f 51/27/4 7/28/4 11/29/4 48/30/4
f 45/31/5 23/32/5 19/33/5 50/34/5
f 61/35/3 54/36/3 20/37/3 9/38/3 59/39/3 60/40/3
f 9/41/5 8/42/5 75/43/5 76/44/5
f 58/45/5 68/46/5 59/47/5 76/44/5 75/43/5
f 49/48/4 18/49/4 20/50/4 54/51/4
f 44/52/6 34/53/6 33/54/6 41/55/6 42/55/6 43/56/6
f 37/57/6 36/57/6 31/58/6 29/59/6 38/60/6 39/61/6
f 34/53/3 6/62/3 4/63/3 5/64/3 3/65/3 2/66/3 1/67/3 29/59/3 31/58/3 62/68/3 30/69/3 32/70/3 33/54/3
f 25/71/1 24/71/1 4/63/1 6/62/1 28/72/1 27/73/1
f 17/74/1 16/75/1 1/67/1 2/66/1 13/76/1 14/76/1
f 29/59/4 1/67/4 16/77/4 38/78/4
f 28/79/5 6/62/5 34/53/5 44/80/5
f 15/81/1 3/82/1 5/83/1 26/84/1
f 13/85/5 2/86/5 3/87/5 15/88/5
f 26/89/4 5/90/4 4/91/4 24/92/4
f 40/93/6 32/94/6 30/95/6 35/96/6
f 63/97/5 35/98/5 76/99/5 59/100/5
f 30/101/5 62/102/5 58/103/5 75/104/5
f 58/103/5 68/105/5 59/100/5 76/99/5 75/104/5
f 41/106/4 33/107/4 32/108/4 40/109/4
f 16/110/2 17/111/2 39/111/2 38/110/2
f 28/112/2 44/112/2 43/113/2 27/113/2
f 13/114/2 15/115/2 14/114/2
f 14/114/2 10/116/2 21/117/2 40/118/2 35/119/2
f 24/120/2 25/120/2 26/121/2
f 36/122/7 37/122/7 35/119/7 63/123/7
f 56/122/2 15/115/2 26/121/2 42/124/2 55/124/2 65/125/2 67/126/2 64/123/2 66/122/2
f 40/118/2 42/124/2 41/124/2
f 17/127/5 14/114/5 35/119/5 37/122/5 39/128/5
f 12/129/5 10/116/5 14/114/5 15/115/5 56/122/5 47/128/5
f 43/130/4 42/124/4 26/121/4 25/120/4 27/131/4
f 42/124/4 40/118/4 21/117/4 22/132/4 46/130/4 55/124/4
f 53/133/6 52/133/6 51/134/6 48/134/6 47/133/6 56/133/6 66/133/6
f 65/135/6 55/136/6 46/136/6 45/137/6 50/137/6 49/136/6 54/136/6 61/135/6
f 60/62/6 59/23/6 63/23/6 64/23/6 67/62/6
f 64/138/5 63/138/5 36/139/5 72/140/5 53/140/5 66/139/5
f 71/141/5 52/142/5 53/140/5 72/140/5 74/142/5
f 73/143/5 57/144/5 71/141/5 74/142/5
f 57/144/5 69/145/5 70/146/5
f 72/140/5 36/139/5 63/138/5 59/147/5
f 58/148/5 62/149/5 31/150/5 71/141/5 57/144/5 70/146/5 69/145/5
f 77/151/5 69/145/5 57/144/5 73/143/5 74/142/5 72/140/5 59/147/5 68/152/5
f 68/152/5 58/148/5 69/145/5 77/151/5
f 61/153/4 60/154/4 67/155/4 65/156/4
