# Blender 5.0.0
# www.blender.org
mtllib T_Traeger_T.mtl
o Plane.001
v 0.200000 0.000000 1.000000
v 0.040000 0.060000 -0.040000
v -0.040000 0.060000 0.440000
v 1.000000 0.000000 0.200000
v -0.040000 0.060000 -0.700000
v 0.040000 0.060000 0.040000
v -0.040000 0.060000 -0.040000
v 0.200000 0.000000 0.200000
v 0.040000 0.340000 -0.040000
v -0.040000 0.340000 0.440000
v -0.040000 0.060000 0.040000
v -0.040000 0.340000 -0.700000
v 0.040000 0.340000 0.040000
v 0.200000 0.400000 1.000000
v 0.200000 0.400000 0.200000
v 1.000000 0.400000 0.200000
v -0.040000 0.340000 0.040000
v -0.040000 0.340000 -0.040000
v -0.200000 0.000000 1.000000
v -0.200000 0.000000 0.200000
v -0.200000 0.400000 0.200000
v -0.200000 0.400000 1.000000
v -0.200000 0.000000 -1.000000
v -0.200000 0.000000 -0.200000
v -0.200000 0.400000 -0.200000
v -0.200000 0.400000 -1.000000
v 0.200000 0.000000 -1.000000
v 1.000000 0.000000 -0.200000
v 0.200000 0.000000 -0.200000
v 0.200000 0.400000 -1.000000
v 1.000000 0.400000 -0.200000
v 0.200000 0.400000 -0.200000
v -0.040000 0.340000 -1.000000
v -0.200000 0.060000 -1.000000
v -0.200000 0.340000 -1.000000
v -0.040000 0.060000 -1.000000
v -0.200000 0.060000 -0.200000
v -0.200000 0.340000 -0.200000
v -0.040000 0.060000 1.000000
v -0.040000 0.340000 1.000000
v -0.200000 0.060000 1.000000
v -0.200000 0.340000 1.000000
v -0.200000 0.060000 0.200000
v -0.200000 0.340000 0.200000
v 1.000000 0.060000 0.040000
v 1.000000 0.060000 0.200000
v 1.000000 0.340000 0.200000
v 1.000000 0.340000 0.040000
v 0.040000 0.340000 1.000000
v 0.040000 0.060000 1.000000
v 0.200000 0.060000 1.000000
v 0.200000 0.340000 1.000000
v 0.200000 0.060000 0.200000
v 0.200000 0.340000 0.200000
v 1.000000 0.340000 -0.040000
v 1.000000 0.060000 -0.040000
v 1.000000 0.060000 -0.200000
v 1.000000 0.340000 -0.200000
v 0.040000 0.060000 -1.000000
v 0.040000 0.340000 -1.000000
v 0.200000 0.060000 -1.000000
v 0.200000 0.340000 -1.000000
v 0.200000 0.060000 -0.200000
v 0.200000 0.340000 -0.200000
v -0.200000 0.000000 0.666667
v -0.200000 0.400000 -0.666667
v -0.200000 0.060000 -0.040000
v -0.200000 0.340000 -0.466667
v -0.200000 0.340000 -0.040000
v -0.200000 0.060000 0.466667
v -0.200000 0.060000 0.040000
v -0.200000 0.340000 0.040000
v -0.200000 0.340000 0.440000
v -0.200000 0.060000 0.440000
v -0.200000 0.340000 -0.700000
v -0.200000 0.340000 -0.542759
v -0.200000 0.060000 -0.700000
v -0.040000 0.158246 0.040000
v -0.100000 0.060000 -0.700000
v -0.090000 0.060000 -0.700000
v -0.150000 0.340000 -0.700000
v -0.040000 0.113333 0.222857
v -0.099794 0.060000 -0.641237
v -0.114678 0.060000 -0.626610
v -0.134519 0.340000 -0.607111
vn -0.0000 -1.0000 -0.0000
vn -0.0000 1.0000 -0.0000
vn 1.0000 -0.0000 -0.0000
vn -0.0000 -0.0000 -1.0000
vn -0.0000 -0.0000 1.0000
vn -1.0000 -0.0000 -0.0000
vt 0.035593 0.030672
vt 0.031770 0.022388
vt 0.031770 0.026848
vt 0.035593 0.026848
vt 0.031770 0.035132
vt 0.043240 0.028378
vt 0.043240 0.030672
vt 0.043240 0.029142
vt 0.033299 0.038318
vt 0.035593 0.038318
vt 0.034064 0.038318
vt 0.033299 0.019202
vt 0.035593 0.019202
vt 0.034064 0.019202
vt 0.024123 0.038318
vt 0.024123 0.030672
vt 0.031770 0.038318
vt 0.043240 0.038318
vt 0.043240 0.036024
vt 0.043240 0.033858
vt 0.043240 0.036024
vt 0.043240 0.026848
vt 0.043240 0.023981
vt 0.043240 0.022478
vt 0.043240 0.021751
vt 0.043240 0.019202
vt 0.043240 0.023662
vt 0.024123 0.019202
vt 0.024123 0.026848
vt 0.031770 0.019202
vt 0.043240 0.035300
vt 0.040603 0.030269
vt 0.042251 0.030269
vt 0.040603 0.021885
vt 0.042009 0.029039
vt 0.042254 0.029284
vt 0.042416 0.030269
vt 0.041427 0.030269
vt 0.043240 0.030269
vt 0.040603 0.026357
vt 0.041682 0.028712
vt 0.043240 0.030269
vt 0.040603 0.031164
vt 0.043240 0.022220
vt 0.043240 0.031611
vt 0.040603 0.035635
vt 0.040603 0.031611
vt 0.040603 0.022220
vt 0.043240 0.031611
vt 0.043240 0.022220
vt 0.040603 0.031611
vt 0.043240 0.035252
vt 0.026760 0.035635
vt 0.026760 0.022220
vt 0.039944 0.035635
vt 0.024123 0.022220
vt 0.039944 0.038318
vt 0.026760 0.021885
vt 0.039944 0.021885
vt 0.026760 0.035300
vt 0.024123 0.035300
vt 0.039944 0.019202
vt 0.034806 0.046390
vt 0.034806 0.039838
vt 0.034806 0.036562
vt 0.034806 0.030010
vt 0.023509 0.025987
vt 0.034806 0.031735
vt 0.023509 0.031735
vt 0.034806 0.031735
vt 0.034806 0.025987
vt 0.031770 0.030672
vt 0.043240 0.035769
vt 0.040603 0.035300
vt 0.040603 0.019202
vt 0.040603 0.027633
vt 0.040603 0.022220
vt 0.040603 0.038318
vt 0.024123 0.022220
vt 0.026760 0.035300
s 0
usemtl Farbpalette
f 29/1/1 65/2/1 20/3/1
f 15/4/2 32/1/2 66/5/2
f 45/6/3 28/7/3 56/8/3
f 33/9/4 30/10/4 60/11/4
f 39/12/5 1/13/5 50/14/5
f 15/15/3 52/16/3 54/15/3
f 1/16/3 53/15/3 51/16/3
f 8/15/5 46/17/5 53/15/5
f 16/17/5 54/15/5 47/17/5
f 21/18/6 73/19/6 42/7/6
f 41/7/6 65/20/6 19/7/6
f 65/20/6 74/21/6 43/18/6
f 26/22/6 75/23/6 76/24/6
f 68/25/6 25/26/6 66/27/6
f 77/23/6 23/22/6 37/26/6
f 29/28/3 61/29/3 63/28/3
f 30/29/3 64/28/3 62/29/3
f 31/30/4 64/28/4 32/28/4
f 29/28/4 57/30/4 28/30/4
f 36/31/2 77/32/2 79/33/2
f 37/34/2 7/26/2 84/35/2
f 79/33/2 83/36/2 80/37/2
f 33/31/1 81/38/1 75/32/1
f 12/39/1 68/40/1 85/41/1
f 85/41/1 75/32/1 81/38/1
f 33/31/6 5/42/6 12/39/6
f 18/26/6 5/42/6 7/26/6
f 70/43/2 39/44/2 3/45/2
f 11/18/2 43/46/2 74/47/2
f 42/48/1 10/49/1 40/50/1
f 44/46/1 17/18/1 73/51/1
f 39/44/6 10/49/6 3/45/6
f 11/18/6 82/52/6 78/18/6
f 3/45/6 17/18/6 82/52/6
f 53/53/2 6/15/2 51/54/2
f 54/53/1 13/15/1 47/55/1
f 13/15/3 50/56/3 6/15/3
f 6/15/5 48/57/5 13/15/5
f 63/58/2 2/28/2 57/59/2
f 64/58/1 9/28/1 62/60/1
f 2/28/3 60/61/3 9/28/3
f 9/28/4 56/62/4 2/28/4
f 25/63/6 69/64/6 72/65/6
f 24/63/6 43/66/6 71/65/6
f 71/67/2 7/68/2 67/69/2
f 72/67/1 18/70/1 17/71/1
f 18/70/6 11/71/6 78/71/6
f 29/1/1 28/7/1 4/22/1
f 8/4/1 1/13/1 19/30/1
f 29/1/1 4/22/1 8/4/1
f 23/17/1 27/10/1 29/1/1
f 24/72/1 23/17/1 29/1/1
f 29/1/1 8/4/1 19/30/1
f 29/1/1 19/30/1 65/2/1
f 20/3/1 24/72/1 29/1/1
f 21/3/2 22/30/2 14/13/2
f 15/4/2 16/22/2 31/7/2
f 21/3/2 14/13/2 15/4/2
f 25/72/2 21/3/2 15/4/2
f 15/4/2 31/7/2 32/1/2
f 32/1/2 30/10/2 26/17/2
f 66/5/2 25/72/2 15/4/2
f 32/1/2 26/17/2 66/5/2
f 55/8/3 58/7/3 31/7/3
f 31/7/3 16/22/3 47/22/3
f 31/7/3 47/22/3 48/6/3
f 55/8/3 31/7/3 48/6/3
f 45/6/3 46/22/3 4/22/3
f 55/8/3 48/6/3 45/6/3
f 28/7/3 57/7/3 56/8/3
f 56/8/3 55/8/3 45/6/3
f 45/6/3 4/22/3 28/7/3
f 59/11/4 61/10/4 27/10/4
f 27/10/4 23/17/4 34/17/4
f 27/10/4 34/17/4 36/9/4
f 59/11/4 27/10/4 36/9/4
f 33/9/4 35/17/4 26/17/4
f 59/11/4 36/9/4 33/9/4
f 30/10/4 62/10/4 60/11/4
f 60/11/4 59/11/4 33/9/4
f 33/9/4 26/17/4 30/10/4
f 49/14/5 52/13/5 14/13/5
f 14/13/5 22/30/5 42/30/5
f 14/13/5 42/30/5 40/12/5
f 49/14/5 14/13/5 40/12/5
f 39/12/5 41/30/5 19/30/5
f 49/14/5 40/12/5 39/12/5
f 1/13/5 51/13/5 50/14/5
f 50/14/5 49/14/5 39/12/5
f 39/12/5 19/30/5 1/13/5
f 15/15/3 14/16/3 52/16/3
f 1/16/3 8/15/3 53/15/3
f 8/15/5 4/17/5 46/17/5
f 16/17/5 15/15/5 54/15/5
f 42/7/6 22/7/6 21/18/6
f 21/18/6 44/18/6 73/19/6
f 41/7/6 70/73/6 65/20/6
f 43/18/6 20/18/6 65/20/6
f 65/20/6 70/73/6 74/21/6
f 68/25/6 66/27/6 26/22/6
f 26/22/6 35/22/6 75/23/6
f 76/24/6 68/25/6 26/22/6
f 68/25/6 38/26/6 25/26/6
f 77/23/6 34/22/6 23/22/6
f 23/22/6 24/26/6 37/26/6
f 29/28/3 27/29/3 61/29/3
f 30/29/3 32/28/3 64/28/3
f 31/30/4 58/30/4 64/28/4
f 29/28/4 63/28/4 57/30/4
f 80/37/2 5/42/2 36/31/2
f 36/31/2 34/74/2 77/32/2
f 79/33/2 80/37/2 36/31/2
f 79/33/2 77/32/2 37/34/2
f 37/34/2 67/75/2 7/26/2
f 7/26/2 5/42/2 80/37/2
f 7/26/2 80/37/2 83/36/2
f 84/35/2 79/33/2 37/34/2
f 7/26/2 83/36/2 84/35/2
f 79/33/2 84/35/2 83/36/2
f 75/32/1 35/74/1 33/31/1
f 33/31/1 12/39/1 81/38/1
f 12/39/1 18/26/1 69/75/1
f 12/39/1 69/75/1 38/34/1
f 85/41/1 81/38/1 12/39/1
f 68/40/1 76/76/1 85/41/1
f 12/39/1 38/34/1 68/40/1
f 85/41/1 76/76/1 75/32/1
f 33/31/6 36/31/6 5/42/6
f 18/26/6 12/39/6 5/42/6
f 3/45/2 74/47/2 70/43/2
f 70/43/2 41/77/2 39/44/2
f 74/47/2 3/45/2 11/18/2
f 11/18/2 71/78/2 43/46/2
f 42/48/1 73/51/1 10/49/1
f 44/46/1 72/78/1 17/18/1
f 17/18/1 10/49/1 73/51/1
f 39/44/6 40/50/6 10/49/6
f 3/45/6 10/49/6 17/18/6
f 17/18/6 78/18/6 82/52/6
f 82/52/6 11/18/6 3/45/6
f 53/53/2 46/55/2 45/57/2
f 6/15/2 50/56/2 51/54/2
f 53/53/2 45/57/2 6/15/2
f 54/53/1 52/54/1 49/79/1
f 13/15/1 48/57/1 47/55/1
f 54/53/1 49/79/1 13/15/1
f 13/15/3 49/79/3 50/56/3
f 6/15/5 45/57/5 48/57/5
f 63/58/2 61/80/2 59/61/2
f 2/28/2 56/62/2 57/59/2
f 63/58/2 59/61/2 2/28/2
f 64/58/1 58/59/1 55/62/1
f 9/28/1 60/61/1 62/60/1
f 64/58/1 55/62/1 9/28/1
f 2/28/3 59/61/3 60/61/3
f 9/28/4 55/62/4 56/62/4
f 44/66/6 21/66/6 25/63/6
f 25/63/6 38/63/6 69/64/6
f 72/65/6 44/66/6 25/63/6
f 67/64/6 37/63/6 24/63/6
f 24/63/6 20/66/6 43/66/6
f 71/65/6 67/64/6 24/63/6
f 71/67/2 11/71/2 7/68/2
f 72/67/1 69/69/1 18/70/1
f 78/71/6 17/71/6 18/70/6
f 18/70/6 7/68/6 11/71/6
