# Blender 5.0.0
# www.blender.org
mtllib T_Traeger_X.mtl
o Plane.003
v 0.200000 0.000000 1.000000
v 0.040000 0.060000 -0.040000
v 1.000000 0.000000 0.200000
v 0.040000 0.060000 0.040000
v -0.040000 0.060000 -0.040000
v 0.200000 0.000000 0.200000
v 0.040000 0.340000 -0.040000
v -0.040000 0.060000 0.040000
v 0.040000 0.340000 0.040000
v 0.200000 0.400000 1.000000
v 0.200000 0.400000 0.200000
v 1.000000 0.400000 0.200000
v -0.040000 0.340000 0.040000
v -0.040000 0.340000 -0.040000
v -1.000000 0.000000 0.200000
v -0.200000 0.000000 1.000000
v -0.200000 0.000000 0.200000
v -0.200000 0.400000 0.200000
v -1.000000 0.400000 0.200000
v -0.200000 0.400000 1.000000
v -1.000000 0.000000 -0.200000
v -0.200000 0.000000 -1.000000
v -0.200000 0.000000 -0.200000
v -1.000000 0.400000 -0.200000
v -0.200000 0.400000 -0.200000
v -0.200000 0.400000 -1.000000
v 0.200000 0.000000 -1.000000
v 1.000000 0.000000 -0.200000
v 0.200000 0.000000 -0.200000
v 0.200000 0.400000 -1.000000
v 1.000000 0.400000 -0.200000
v 0.200000 0.400000 -0.200000
v -1.000000 0.340000 -0.040000
v -1.000000 0.060000 -0.040000
v -1.000000 0.340000 -0.200000
v -1.000000 0.060000 -0.200000
v -0.040000 0.340000 -1.000000
v -0.200000 0.060000 -1.000000
v -0.200000 0.340000 -1.000000
v -0.040000 0.060000 -1.000000
v -0.200000 0.060000 -0.200000
v -0.200000 0.340000 -0.200000
v -1.000000 0.340000 0.040000
v -1.000000 0.060000 0.040000
v -1.000000 0.060000 0.200000
v -1.000000 0.340000 0.200000
v -0.040000 0.060000 1.000000
v -0.040000 0.340000 1.000000
v -0.200000 0.060000 1.000000
v -0.200000 0.340000 1.000000
v -0.200000 0.060000 0.200000
v -0.200000 0.340000 0.200000
v 1.000000 0.060000 0.040000
v 1.000000 0.060000 0.200000
v 1.000000 0.340000 0.200000
v 1.000000 0.340000 0.040000
v 0.040000 0.340000 1.000000
v 0.040000 0.060000 1.000000
v 0.200000 0.060000 1.000000
v 0.200000 0.340000 1.000000
v 0.200000 0.060000 0.200000
v 0.200000 0.340000 0.200000
v 1.000000 0.340000 -0.040000
v 1.000000 0.060000 -0.040000
v 1.000000 0.060000 -0.200000
v 1.000000 0.340000 -0.200000
v 0.040000 0.060000 -1.000000
v 0.040000 0.340000 -1.000000
v 0.200000 0.060000 -1.000000
v 0.200000 0.340000 -1.000000
v 0.200000 0.060000 -0.200000
v 0.200000 0.340000 -0.200000
vn -0.0000 -1.0000 -0.0000
vn -0.0000 1.0000 -0.0000
vn 1.0000 -0.0000 -0.0000
vn -1.0000 -0.0000 -0.0000
vn -0.0000 -0.0000 -1.0000
vn -0.0000 -0.0000 1.0000
vt 0.035593 0.030672
vt 0.031770 0.026848
vt 0.031770 0.030672
vt 0.035593 0.026848
vt 0.043240 0.028378
vt 0.043240 0.030672
vt 0.043240 0.029142
vt 0.024123 0.029142
vt 0.024123 0.026848
vt 0.024123 0.028378
vt 0.033299 0.038318
vt 0.034064 0.038318
vt 0.033299 0.019202
vt 0.035593 0.019202
vt 0.034064 0.019202
vt 0.024123 0.038318
vt 0.024123 0.030672
vt 0.031770 0.038318
vt 0.043240 0.038318
vt 0.035593 0.038318
vt 0.043240 0.019202
vt 0.043240 0.026848
vt 0.024123 0.019202
vt 0.031770 0.019202
vt 0.040603 0.021885
vt 0.040603 0.035300
vt 0.027419 0.021885
vt 0.027419 0.019202
vt 0.043240 0.035300
vt 0.040603 0.035635
vt 0.027419 0.035635
vt 0.040603 0.022220
vt 0.027419 0.038318
vt 0.043240 0.022220
vt 0.043240 0.022220
vt 0.026760 0.035635
vt 0.026760 0.022220
vt 0.039944 0.035635
vt 0.024123 0.022220
vt 0.039944 0.038318
vt 0.039944 0.021885
vt 0.026760 0.021885
vt 0.026760 0.035300
vt 0.024123 0.035300
vt 0.039944 0.019202
vt 0.040603 0.022220
vt 0.024123 0.022220
vt 0.026760 0.035300
s 0
usemtl Farbpalette
f 29/1/1 17/2/1 23/3/1
f 18/2/2 11/4/2 32/1/2
f 53/5/3 28/6/3 64/7/3
f 34/8/4 15/9/4 44/10/4
f 40/11/5 68/12/5 67/12/5
f 47/13/6 1/14/6 58/15/6
f 11/16/3 60/17/3 62/16/3
f 1/17/3 61/16/3 59/17/3
f 6/16/6 54/18/6 61/16/6
f 12/18/6 62/16/6 55/18/6
f 20/6/4 52/19/4 50/6/4
f 16/6/4 51/19/4 17/19/4
f 18/19/6 46/20/6 52/19/6
f 15/20/6 51/19/6 45/20/6
f 25/21/4 39/22/4 42/21/4
f 23/21/4 38/22/4 22/22/4
f 24/14/5 42/21/5 35/14/5
f 21/14/5 41/21/5 23/21/5
f 29/23/3 69/9/3 71/23/3
f 30/9/3 72/23/3 70/9/3
f 31/24/5 72/23/5 32/23/5
f 29/23/5 65/24/5 28/24/5
f 41/25/2 5/21/2 38/26/2
f 42/25/1 14/21/1 35/27/1
f 14/21/5 34/28/5 33/28/5
f 14/21/4 40/29/4 5/21/4
f 51/30/2 8/19/2 45/31/2
f 52/30/1 13/19/1 50/32/1
f 13/19/6 44/33/6 8/19/6
f 13/19/4 47/34/4 48/35/4
f 61/36/2 4/16/2 59/37/2
f 9/16/1 55/38/1 62/36/1
f 9/16/3 58/39/3 4/16/3
f 4/16/6 56/40/6 9/16/6
f 2/23/2 65/41/2 71/42/2
f 7/23/1 70/43/1 72/42/1
f 2/23/3 68/44/3 7/23/3
f 7/23/5 64/45/5 2/23/5
f 29/1/1 28/6/1 3/22/1
f 6/4/1 1/14/1 16/24/1
f 29/1/1 3/22/1 6/4/1
f 22/18/1 27/20/1 29/1/1
f 15/9/1 21/17/1 23/3/1
f 23/3/1 22/18/1 29/1/1
f 29/1/1 6/4/1 16/24/1
f 17/2/1 15/9/1 23/3/1
f 29/1/1 16/24/1 17/2/1
f 32/1/2 30/20/2 26/18/2
f 25/3/2 24/17/2 19/9/2
f 32/1/2 26/18/2 25/3/2
f 12/22/2 31/6/2 32/1/2
f 20/24/2 10/14/2 11/4/2
f 11/4/2 12/22/2 32/1/2
f 32/1/2 25/3/2 19/9/2
f 18/2/2 20/24/2 11/4/2
f 32/1/2 19/9/2 18/2/2
f 63/7/3 66/6/3 31/6/3
f 31/6/3 12/22/3 55/22/3
f 31/6/3 55/22/3 56/5/3
f 63/7/3 31/6/3 56/5/3
f 53/5/3 54/22/3 3/22/3
f 63/7/3 56/5/3 53/5/3
f 28/6/3 65/6/3 64/7/3
f 64/7/3 63/7/3 53/5/3
f 53/5/3 3/22/3 28/6/3
f 43/10/4 46/9/4 19/9/4
f 19/9/4 24/17/4 35/17/4
f 19/9/4 35/17/4 33/8/4
f 43/10/4 19/9/4 33/8/4
f 34/8/4 36/17/4 21/17/4
f 43/10/4 33/8/4 34/8/4
f 15/9/4 45/9/4 44/10/4
f 44/10/4 43/10/4 34/8/4
f 34/8/4 21/17/4 15/9/4
f 69/20/5 27/20/5 22/18/5
f 22/18/5 38/18/5 40/11/5
f 37/11/5 39/18/5 26/18/5
f 37/11/5 26/18/5 30/20/5
f 30/20/5 70/20/5 68/12/5
f 67/12/5 69/20/5 22/18/5
f 37/11/5 30/20/5 68/12/5
f 67/12/5 22/18/5 40/11/5
f 40/11/5 37/11/5 68/12/5
f 57/15/6 60/14/6 10/14/6
f 10/14/6 20/24/6 50/24/6
f 10/14/6 50/24/6 48/13/6
f 57/15/6 10/14/6 48/13/6
f 47/13/6 49/24/6 16/24/6
f 57/15/6 48/13/6 47/13/6
f 1/14/6 59/14/6 58/15/6
f 58/15/6 57/15/6 47/13/6
f 47/13/6 16/24/6 1/14/6
f 11/16/3 10/17/3 60/17/3
f 1/17/3 6/16/3 61/16/3
f 6/16/6 3/18/6 54/18/6
f 12/18/6 11/16/6 62/16/6
f 20/6/4 18/19/4 52/19/4
f 16/6/4 49/6/4 51/19/4
f 18/19/6 19/20/6 46/20/6
f 15/20/6 17/19/6 51/19/6
f 25/21/4 26/22/4 39/22/4
f 23/21/4 41/21/4 38/22/4
f 24/14/5 25/21/5 42/21/5
f 21/14/5 36/14/5 41/21/5
f 29/23/3 27/9/3 69/9/3
f 30/9/3 32/23/3 72/23/3
f 31/24/5 66/24/5 72/23/5
f 29/23/5 71/23/5 65/24/5
f 41/25/2 36/27/2 34/28/2
f 5/21/2 40/29/2 38/26/2
f 41/25/2 34/28/2 5/21/2
f 42/25/1 39/26/1 37/29/1
f 14/21/1 33/28/1 35/27/1
f 42/25/1 37/29/1 14/21/1
f 14/21/5 5/21/5 34/28/5
f 14/21/4 37/29/4 40/29/4
f 51/30/2 49/46/2 47/34/2
f 8/19/2 44/33/2 45/31/2
f 51/30/2 47/34/2 8/19/2
f 52/30/1 46/31/1 43/33/1
f 13/19/1 48/35/1 50/32/1
f 52/30/1 43/33/1 13/19/1
f 13/19/6 43/33/6 44/33/6
f 13/19/4 8/19/4 47/34/4
f 61/36/2 54/38/2 53/40/2
f 4/16/2 58/39/2 59/37/2
f 61/36/2 53/40/2 4/16/2
f 62/36/1 60/37/1 57/47/1
f 9/16/1 56/40/1 55/38/1
f 62/36/1 57/47/1 9/16/1
f 9/16/3 57/47/3 58/39/3
f 4/16/6 53/40/6 56/40/6
f 71/42/2 69/48/2 67/44/2
f 2/23/2 64/45/2 65/41/2
f 71/42/2 67/44/2 2/23/2
f 66/41/1 63/45/1 7/23/1
f 7/23/1 68/44/1 70/43/1
f 72/42/1 66/41/1 7/23/1
f 2/23/3 67/44/3 68/44/3
f 7/23/5 63/45/5 64/45/5
