# Blender 5.0.0
# www.blender.org
mtllib T_Traeger_Ecke.mtl
o T-Träger_4
v -0.200000 0.000000 1.000000
v -0.200000 0.000000 -0.200000
v 1.000000 0.000000 -0.200000
v 0.040000 0.060000 0.040000
v -0.040000 0.060000 -0.100000
v -0.200000 0.400000 -0.200000
v -0.200000 0.400000 1.000000
v 0.040000 0.340000 0.040000
v 1.000000 0.400000 -0.200000
v -0.040000 0.340000 -0.100000
v 0.200000 0.000000 0.200000
v 0.200000 0.000000 1.000000
v 1.000000 0.000000 0.200000
v 0.200000 0.400000 1.000000
v 1.000000 0.400000 0.200000
v 0.200000 0.400000 0.200000
v 0.040000 0.340000 1.000000
v 0.040000 0.060000 1.000000
v 0.200000 0.060000 1.000000
v 0.200000 0.340000 1.000000
v 1.000000 0.060000 0.040000
v 1.000000 0.340000 0.040000
v 1.000000 0.060000 0.200000
v 1.000000 0.340000 0.200000
v 0.200000 0.060000 0.200000
v 0.200000 0.340000 0.200000
v -0.200000 0.060000 -0.200000
v -0.200000 0.340000 -0.200000
v 1.000000 0.060000 -0.200000
v 1.000000 0.340000 -0.200000
v 1.000000 0.340000 -0.040000
v 1.000000 0.060000 -0.040000
v -0.200000 0.060000 -0.040000
v -0.200000 0.340000 -0.040000
v -0.040000 0.060000 1.000000
v -0.040000 0.340000 1.000000
v -0.200000 0.060000 1.000000
v -0.200000 0.340000 1.000000
v -0.200000 0.340000 -0.100000
v -0.200000 0.060000 -0.100000
v -0.085263 0.340000 -0.040000
v -0.040000 0.340000 -0.040000
v -0.040000 0.060000 -0.040000
v -0.040000 0.340000 -0.061333
v -0.072432 0.340000 -0.057009
vn -0.0000 -1.0000 -0.0000
vn -0.0000 1.0000 -0.0000
vn -0.0000 -0.0000 -1.0000
vn -0.0000 -0.0000 1.0000
vn 1.0000 -0.0000 -0.0000
vn -1.0000 -0.0000 -0.0000
vt 0.038135 0.032919
vt 0.038135 0.026126
vt 0.034739 0.026126
vt 0.034739 0.036316
vt 0.044929 0.036316
vt 0.044929 0.032919
vt 0.036777 0.026126
vt 0.036097 0.026126
vt 0.044929 0.034957
vt 0.044929 0.034278
vt 0.034739 0.034957
vt 0.034739 0.035467
vt 0.036012 0.034886
vt 0.042381 0.034886
vt 0.042381 0.036316
vt 0.034739 0.027735
vt 0.036012 0.027735
vt 0.034739 0.027735
vt 0.043523 0.026126
vt 0.043523 0.027556
vt 0.038252 0.027556
vt 0.038252 0.026662
vt 0.038955 0.026662
vt 0.038955 0.026126
vt 0.038252 0.026126
vt 0.038955 0.026317
vt 0.038756 0.026126
vt 0.038813 0.026278
vt 0.043033 0.026483
vt 0.044929 0.026483
vt 0.044929 0.035780
vt 0.043033 0.035780
vt 0.044392 0.035780
s 0
usemtl Material.004
f 11/1/1 12/2/1 1/3/1 2/4/1 3/5/1 13/6/1
f 16/1/2 15/6/2 9/5/2 6/4/2 7/3/2 14/2/2
f 28/4/3 6/4/3 9/5/3 30/5/3
f 3/5/3 2/4/3 27/4/3 29/5/3
f 37/3/4 1/3/4 12/2/4 19/2/4 18/7/4 17/7/4 20/2/4 14/2/4 7/3/4 38/3/4 36/8/4 35/8/4
f 31/9/5 30/5/5 9/5/5 15/6/5 24/6/5 22/10/5 21/10/5 23/6/5 13/6/5 3/5/5 29/5/5 32/9/5
f 1/3/6 37/3/6 33/11/6 40/12/6 27/4/6 2/4/6
f 7/3/6 6/4/6 28/4/6 39/12/6 34/11/6 38/3/6
f 26/4/5 16/4/5 14/3/5 20/3/5
f 19/3/5 12/3/5 11/4/5 25/4/5
f 25/4/4 11/4/4 13/5/4 23/5/4
f 24/5/4 15/5/4 16/4/4 26/4/4
f 25/13/2 23/14/2 21/15/2 4/4/2 18/16/2 19/17/2
f 26/13/1 20/17/1 17/18/1 8/4/1 22/15/1 24/14/1
f 4/4/5 8/4/5 17/18/5 18/16/5
f 8/4/4 4/4/4 21/15/4 22/15/4
f 32/19/2 29/20/2 27/21/2 40/22/2 5/23/2 43/24/2
f 43/24/2 5/23/2 40/22/2 33/25/2
f 28/21/1 30/20/1 31/19/1 42/24/1 44/26/1 10/23/1 39/22/1
f 41/27/1 45/28/1 44/26/1 42/24/1
f 34/25/1 39/22/1 10/23/1 44/26/1 45/28/1 41/27/1
f 42/24/3 31/19/3 32/19/3 43/24/3
f 37/29/2 35/30/2 43/31/2 33/32/2
f 36/30/1 38/29/1 34/32/1 41/33/1 42/31/1
f 43/31/6 35/30/6 36/30/6 42/31/6
